<svg xmlns="http://www.w3.org/2000/svg" viewBox="0 0 1172.91 1286.96"><defs><style>.cls-1{fill:#fff;}.cls-2{fill:#e51d2f;}.cls-3{fill:#908d8f;}</style></defs><g id="Livello_2" data-name="Livello 2"><g id="Livello_1-2" data-name="Livello 1"><path class="cls-1" d="M0,219l477,945.9L954,219Zm21.12,14L398.88,982,687,398.17H261.2L413.61,698.34l46.54-96.56L399.65,483.1h155.9L396.16,794.91l-242-484H463.35V233H840.6l-38.25,76.82h91.82L932.92,233,477,1137Z"/><polygon class="cls-1" points="560.21 796.08 541.79 760.31 494.94 861.35 555.16 982.03 877.76 342.32 786.15 342.32 560.21 796.08"/><path class="cls-1" d="M14.14,3.48H58.23L72.15,141.32,86.07,3.48h42.24l12.53,137.84L155,3.48h44.78L166.83,188.2H119.26L105.8,51.52,93.5,188.2H45.23Z"/><path class="cls-1" d="M212.54,138.77V59.87C212.54,29.7,219.73,0,268.93,0c34.58,0,54.53,18.8,54.53,51.28v78.9c0,13,0,61.5-54.53,61.5C232.73,191.68,212.54,171.49,212.54,138.77Zm43.63-82.61v77.27c0,16.94,2.09,23.9,12.76,23.9,5.57,0,9.75-7,9.75-15.78V56.62c0-8.58,0-22.51-9.75-22.51C260.58,34.11,256.17,37.59,256.17,56.16Z"/><path class="cls-1" d="M342.49,3.48H413c22.75,0,39.45,16,39.45,46.88,0,13.22-1.85,32.25-20.19,41.3,20.19,8.82,20.19,28.31,20.19,36.2L452,156.64c0,12.3-.23,22,3.71,31.56H413c-2.55-4.88-3.94-10.21-3.94-23l-.23-39.45c0-14.38-6-17.63-22.51-16.7V188.2H342.49ZM409.55,54.3c0-19-10.21-18.1-23.2-18.33V77C404.22,76.58,409.55,78.9,409.55,54.3Z"/><path class="cls-1" d="M475.22,3.48h42V87L546.7,3.48h45.48l-36.9,76.81,36.9,107.91H546.7L527.9,117l-10.68,21.11V188.2h-42Z"/><path class="cls-2" d="M601.92,138.77V59.87C601.92,29.7,609.12,0,658.31,0c34.58,0,54.54,18.8,54.54,51.28v78.9c0,13,0,61.5-54.54,61.5C622.11,191.68,601.92,171.49,601.92,138.77Zm43.63-82.61v77.27c0,16.94,2.09,23.9,12.76,23.9,5.57,0,9.75-7,9.75-15.78V56.62c0-8.58,0-22.51-9.75-22.51C650,34.11,645.55,37.59,645.55,56.16Z"/><path class="cls-2" d="M731.87,3.48H776V131.81c0,10.21,0,25.29,11.84,25.29,12.53,0,11.37-15.08,11.37-18.1V3.48h44.32V134.36c0,16.24,0,57.32-55.92,57.32-55.7,0-55.7-46-55.7-47.81Z"/><path class="cls-2" d="M858.11,3.48H957.2V39H930V188.2H885.72V39H858.11Z"/><path class="cls-3" d="M519,1202l19.1-38,27.39,13.77-19.1,38Zm35.46,17.83,19.1-38L707.12,1249,688,1287Z"/><path class="cls-3" d="M553.48,1133.44l21.87-43.53L705.59,1116l-114.44-57.52,18.67-37.15,169,84.94-22.2,44.16-129.17-26.09,113.59,57.09-18.57,36.94Z"/><path class="cls-3" d="M734.63,1048.17l19.64-39.07c3.07,1.81,6.47,3.52,9.66,5.12,7.22,3.63,20.59,10.35,27.1-2.6,6.19-12.31-4.85-17.86-6.12-18.5-13.17-6.62-26.47,1.32-41.15,8.31l-15.1,7.3c-26.6,12.69-41,13.41-59.1,4.34-6.58-3.31-47.56-23.91-21.63-75.5,24.55-48.83,61.07-30.48,74-24a70.5,70.5,0,0,1,8.59,5.12l-19,37.79-5.73-2.88c-9.34-4.69-21.66-10.88-27.53.79-5.65,11.26,4.54,16.38,6.24,17.23,4,2,8.91,4.49,39.12-9l26.17-11.85c26.59-12.17,43.58-3.63,50.37-.21,6.58,3.3,48.62,24.43,22.37,76.66s-64.26,33.13-80.82,24.81C739.41,1050.83,736.86,1049.55,734.63,1048.17Z"/><path class="cls-3" d="M687.29,867.2l45.57-90.66,32.48,16.33-12.48,24.84,136.52,68.62L869,926.88,732.48,858.26l-12.7,25.27Z"/><path class="cls-3" d="M745.34,751.7l19.1-38,27.39,13.76-19.1,38Zm35.46,17.82,19.1-38,133.55,67.12-19.1,38Z"/><path class="cls-3" d="M776.82,689.07l45.57-90.66,32.48,16.33-12.48,24.84L978.91,708.2l-20.38,40.55L822,680.13l-12.7,25.27Z"/><path class="cls-3" d="M835.41,572.51l20.27-40.34,117.41,59c9.34,4.7,23.14,11.64,28.59.81,5.76-11.47-8.57-17.34-11.33-18.73l-124-62.32,20.39-40.55,119.74,60.18c14.86,7.47,52.44,26.36,26.73,77.53-25.62,51-67.65,29.83-69.35,29Z"/><path class="cls-3" d="M899.86,444.28l45.57-90.66L977.91,370l-12.49,24.84,136.52,68.61L1081.56,504,945,435.34l-12.7,25.26Z"/><path class="cls-3" d="M958.44,327.72l44.5-88.54,33.34,16.76-24.12,48,31.85,16,21.34-42.47,33.54,16.86-21.34,42.47,37,18.56,25.07-49.89,33.34,16.75-45.46,90.45Z"/></g></g></svg>